<?xml version="1.0" encoding="UTF-8"?>
<!-- Created with Inkscape (http://www.inkscape.org/) -->
<svg width="53.274mm" height="56.187mm" version="1.1" viewBox="0 0 53.274 56.187" xmlns="http://www.w3.org/2000/svg">
 <defs>
  <radialGradient id="SVGID_00000007406767934128781520000013982460277388386180_" cx="636.35" cy="241.33" r="100.67" gradientTransform="translate(2.9694 2.9893)" gradientUnits="userSpaceOnUse">
   <stop stop-color="#3f3f3f" stop-opacity=".57143" offset="0"/>
   <stop stop-color="#2995cc" stop-opacity=".68929" offset="1"/>
  </radialGradient>
  <mask id="SVGID_00000132051301273150057970000017289259491327012524_" x="549.664" y="142.867" width="173.04" height="152.799" maskUnits="userSpaceOnUse">
   <g filter="url(#Adobe_OpacityMaskFilter_00000086694210807121591090000010749034270948909465_)">
    <linearGradient id="SVGID_00000034092153045845980770000016371466332975322001_" x1="635.69" x2="635.69" y1="145.12" y2="271.64" gradientUnits="userSpaceOnUse">
     <stop stop-color="#808080" offset="0"/>
     <stop stop-color="#585858" offset=".2516"/>
     <stop stop-color="#292929" offset=".5917"/>
     <stop stop-color="#0B0B0B" offset=".8522"/>
     <stop offset="1"/>
    </linearGradient>
    <path d="m635.69 143.44c-47.777 0-86.52 34.206-86.52 76.396 0 42.2 38.743 76.405 86.52 76.405 47.786 0 86.518-34.206 86.518-76.405 1e-3 -42.19-38.731-76.396-86.518-76.396z" fill="url(#SVGID_00000034092153045845980770000016371466332975322001_)"/>
   </g>
  </mask>
  <filter id="Adobe_OpacityMaskFilter_00000086694210807121591090000010749034270948909465_" x="549.66" y="142.87" width="173.04" height="152.8" filterUnits="userSpaceOnUse">
   <feColorMatrix values="1 0 0 0 0  0 1 0 0 0  0 0 1 0 0  0 0 0 1 0"/>
  </filter>
  <mask id="sun_00000081636045273514003680000015901804861499704722_" x="653.405" y="143.013" width="85.001" height="99.208" maskUnits="userSpaceOnUse">
   <g filter="url(#Adobe_OpacityMaskFilter_00000138535798277969364350000013604572114604321445_)">
    <radialGradient id="SVGID_00000070830344807660120090000014026671804437716109_" cx="696.94" cy="94.971" r="54.414" gradientTransform="matrix(.4896 .8394 -.6084 .355 412.47 -426.11)" gradientUnits="userSpaceOnUse">
     <stop stop-color="#fff" offset=".0303"/>
     <stop stop-color="#CBCBCB" offset=".0998"/>
     <stop stop-color="#8E8E8E" offset=".1905"/>
     <stop stop-color="#5B5B5B" offset=".2777"/>
     <stop stop-color="#343434" offset=".3591"/>
     <stop stop-color="#171717" offset=".4332"/>
     <stop stop-color="#060606" offset=".4978"/>
     <stop offset=".5455"/>
    </radialGradient>
    <path d="m722.55 238.3c-18.277 10.663-45.024-1.15-59.747-26.372-14.719-25.218-11.823-54.322 6.46-64.982 18.286-10.665 45.043 1.13 59.747 26.35 14.723 25.231 11.838 54.323-6.46 65.004z" fill="url(#SVGID_00000070830344807660120090000014026671804437716109_)"/>
   </g>
  </mask>
  <filter id="Adobe_OpacityMaskFilter_00000138535798277969364350000013604572114604321445_" x="653.41" y="143.01" width="85.001" height="99.208" filterUnits="userSpaceOnUse">
   <feColorMatrix values="1 0 0 0 0  0 1 0 0 0  0 0 1 0 0  0 0 0 1 0"/>
  </filter>
  <mask id="SVGID_00000055691801986759401950000018329904329466777223_" x="715.307" y="186.101" width="20.48" height="92.063" maskUnits="userSpaceOnUse">
   <g filter="url(#Adobe_OpacityMaskFilter_00000029026662833654843190000017430906560299323823_)">
    <linearGradient id="SVGID_00000013167922144123442510000005329545215070305177_" x1="-202.62" x2="-188.3" y1="-283.74" y2="-264.08" gradientTransform="matrix(-.4148 .9099 -.9099 -.4148 402.76 293.74)" gradientUnits="userSpaceOnUse">
     <stop stop-color="#fff" offset="0"/>
     <stop offset="1"/>
    </linearGradient>
    <path d="m724.87 278.15c-0.852 0.431 4.876-7.819 7.884-19.305 3.373-11.492 4.023-26.219 1.494-38.671-4.543-26.757-22.227-39.073-18.404-32.193 2.699 6.219 11.734 24.679 10.585 44.038 0.362 18.935-9.461 38.771-9.507 37.984 0.28 0.164 10.148-17.885 11.934-29.189 1.945-11.085 6.07-16.938 3.866 11.949-1.301 8.338-3.854 16.911-7.852 25.387z" fill="url(#SVGID_00000013167922144123442510000005329545215070305177_)"/>
   </g>
  </mask>
  <filter id="Adobe_OpacityMaskFilter_00000029026662833654843190000017430906560299323823_" x="715.31" y="186.1" width="20.48" height="92.063" filterUnits="userSpaceOnUse">
   <feColorMatrix values="1 0 0 0 0  0 1 0 0 0  0 0 1 0 0  0 0 0 1 0"/>
  </filter>
  <mask id="sun_00000168084112991027547210000003110774896332438151_" x="558.917" y="266.126" width="154.869" height="114.519" maskUnits="userSpaceOnUse">
   <g filter="url(#Adobe_OpacityMaskFilter_00000012432357099339719540000013713506162552899982_)">
    <radialGradient id="SVGID_00000113327604637819566130000015974638409348045703_" cx="713.96" cy="435.54" r="72.323" gradientTransform="matrix(.0389 .7899 -1.07 .0526 1074.6 -263.48)" gradientUnits="userSpaceOnUse">
     <stop stop-color="#fff" offset=".0303"/>
     <stop stop-color="#CBCBCB" offset=".1611"/>
     <stop stop-color="#8E8E8E" offset=".3318"/>
     <stop stop-color="#5B5B5B" offset=".496"/>
     <stop stop-color="#343434" offset=".6492"/>
     <stop stop-color="#171717" offset=".7888"/>
     <stop stop-color="#060606" offset=".9102"/>
     <stop offset="1"/>
    </radialGradient>
    <path d="m639.14 380.52c-42.722 2.104-78.608-21.781-80.176-53.334-1.557-31.542 31.838-58.83 74.567-60.927 42.745-2.098 78.654 21.77 80.197 53.314 1.556 31.555-31.814 58.834-74.588 60.947z" fill="url(#SVGID_00000113327604637819566130000015974638409348045703_)"/>
   </g>
  </mask>
  <filter id="Adobe_OpacityMaskFilter_00000012432357099339719540000013713506162552899982_" x="558.92" y="266.13" width="154.87" height="114.52" filterUnits="userSpaceOnUse">
   <feColorMatrix values="1 0 0 0 0  0 1 0 0 0  0 0 1 0 0  0 0 0 1 0"/>
  </filter>
  <mask id="SVGID_00000072982016259206085180000012331659263711226030_" x="558.996" y="154.851" width="48.806" height="68.32" maskUnits="userSpaceOnUse">
   <g filter="url(#Adobe_OpacityMaskFilter_00000105386861161248568920000011317797686009459618_)">
    <linearGradient id="SVGID_00000102514191210279552720000008894659701491635380_" x1="247.38" x2="266.97" y1="-37.555" y2="-11.843" gradientTransform="matrix(.9958 .0914 -.0914 .9958 298.47 196)" gradientUnits="userSpaceOnUse">
     <stop stop-color="#fff" offset="0"/>
     <stop offset="1"/>
    </linearGradient>
    <path d="m568.41 189.74c-5.768 9.677-8.592 21.033-8.071 32.132-0.227 0.427-0.446 0.864-0.663 1.303-1.773-10.954-0.228-24.228 6.491-36.67 0.728 1.101 1.475 2.18 2.243 3.235z" fill="url(#SVGID_00000102514191210279552720000008894659701491635380_)"/>
    <linearGradient id="SVGID_00000034789632251231533660000011591773824297722046_" x1="279.76" x2="299.35" y1="-62.228" y2="-36.519" gradientTransform="matrix(.9958 .0914 -.0914 .9958 298.47 196)" gradientUnits="userSpaceOnUse">
     <stop stop-color="#fff" offset="0"/>
     <stop offset="1"/>
    </linearGradient>
    <path d="m596.99 165.37c-10.233 3.97-19.446 11.133-25.952 20.322-0.612-1.442-1.185-2.923-1.709-4.43 8.025-12.008 21.334-22.407 38.473-26.414-4.249 3.202-7.846 6.767-10.812 10.522z" fill="url(#SVGID_00000034789632251231533660000011591773824297722046_)"/>
    <linearGradient id="SVGID_00000099645183568808059670000002053088309293268123_" x1="248.12" x2="267.71" y1="-38.116" y2="-12.407" gradientTransform="matrix(.9958 .0914 -.0914 .9958 298.47 196)" gradientUnits="userSpaceOnUse">
     <stop stop-color="#fff" offset="0"/>
     <stop offset="1"/>
    </linearGradient>
    <path d="m571.13 193.27c-4.973 6.745-9.063 15.97-10.001 27.146-0.235 0.417-0.466 0.84-0.692 1.268-0.338-11.112 2.654-22.202 8.309-31.495 0.772 1.05 1.569 2.075 2.384 3.081z" fill="url(#SVGID_00000099645183568808059670000002053088309293268123_)"/>
    <linearGradient id="SVGID_00000103228001466669118760000005659583279097825440_" x1="272.89" x2="292.48" y1="-56.992" y2="-31.277" gradientTransform="matrix(.9958 .0914 -.0914 .9958 298.47 196)" gradientUnits="userSpaceOnUse">
     <stop stop-color="#fff" offset="0"/>
     <stop offset="1"/>
    </linearGradient>
    <path d="m589.22 178.76c-4.896 1.933-10.688 5.646-15.909 11.759-0.711-1.366-1.38-2.77-2.009-4.203 6.318-8.795 15.033-15.512 24.451-19.317-2.788 3.807-4.953 7.776-6.533 11.761z" fill="url(#SVGID_00000103228001466669118760000005659583279097825440_)"/>
   </g>
  </mask>
  <filter id="Adobe_OpacityMaskFilter_00000105386861161248568920000011317797686009459618_" x="559" y="154.85" width="48.806" height="68.32" filterUnits="userSpaceOnUse">
   <feColorMatrix values="1 0 0 0 0  0 1 0 0 0  0 0 1 0 0  0 0 0 1 0"/>
  </filter>
  <mask id="sun_00000013169900568686855440000009176627494716549821_" x="612.935" y="310.14" width="44.906" height="33.206" maskUnits="userSpaceOnUse">
   <g filter="url(#Adobe_OpacityMaskFilter_00000170974379156511534300000005466446470174696587_)">
    <radialGradient id="SVGID_00000019649531455126578450000015920983298414831275_" cx="718.14" cy="436.59" r="20.971" gradientTransform="matrix(.0389 .7899 -1.07 .0526 1074.6 -263.48)" gradientUnits="userSpaceOnUse">
     <stop stop-color="#fff" offset=".0303"/>
     <stop stop-color="#CBCBCB" offset=".1611"/>
     <stop stop-color="#8E8E8E" offset=".3318"/>
     <stop stop-color="#5B5B5B" offset=".496"/>
     <stop stop-color="#343434" offset=".6492"/>
     <stop stop-color="#171717" offset=".7888"/>
     <stop stop-color="#060606" offset=".9102"/>
     <stop offset="1"/>
    </radialGradient>
    <path d="m636.2 343.31c-12.387 0.61-22.793-6.316-23.248-15.466-0.451-9.145 9.232-17.058 21.623-17.666 12.394-0.608 22.807 6.313 23.253 15.459 0.452 9.151-9.225 17.061-21.628 17.673z" fill="url(#SVGID_00000019649531455126578450000015920983298414831275_)"/>
   </g>
  </mask>
  <filter id="Adobe_OpacityMaskFilter_00000170974379156511534300000005466446470174696587_" x="612.94" y="310.14" width="44.906" height="33.206" filterUnits="userSpaceOnUse">
   <feColorMatrix values="1 0 0 0 0  0 1 0 0 0  0 0 1 0 0  0 0 0 1 0"/>
  </filter>
  <mask id="sun_00000096755119698890721740000015475412462367857590_" x="583.432" y="290.919" width="105.503" height="78.014" maskUnits="userSpaceOnUse">
   <g filter="url(#Adobe_OpacityMaskFilter_00000120533570709649777670000008475198480833810075_)">
    <radialGradient id="SVGID_00000117657144010251467870000005540750595653974708_" cx="722.21" cy="435.99" r="49.269" gradientTransform="matrix(.0389 .7899 -1.07 .0526 1074.6 -263.48)" gradientUnits="userSpaceOnUse">
     <stop stop-color="#fff" offset=".0303"/>
     <stop stop-color="#CBCBCB" offset=".1611"/>
     <stop stop-color="#8E8E8E" offset=".3318"/>
     <stop stop-color="#5B5B5B" offset=".496"/>
     <stop stop-color="#343434" offset=".6492"/>
     <stop stop-color="#171717" offset=".7888"/>
     <stop stop-color="#060606" offset=".9102"/>
     <stop offset="1"/>
    </radialGradient>
    <path d="m638.09 368.84c-29.104 1.435-53.551-14.837-54.619-36.333-1.06-21.486 21.689-40.077 50.8-41.505 29.118-1.429 53.581 14.832 54.632 36.319 1.06 21.497-21.675 40.081-50.813 41.519z" fill="url(#SVGID_00000117657144010251467870000005540750595653974708_)"/>
   </g>
  </mask>
  <filter id="Adobe_OpacityMaskFilter_00000120533570709649777670000008475198480833810075_" x="583.43" y="290.92" width="105.5" height="78.014" filterUnits="userSpaceOnUse">
   <feColorMatrix values="1 0 0 0 0  0 1 0 0 0  0 0 1 0 0  0 0 0 1 0"/>
  </filter>
  <filter id="filter8" x="-.29733" y="-.33672" width="1.5947" height="1.6734" color-interpolation-filters="sRGB">
   <feGaussianBlur stdDeviation="21.437681"/>
  </filter>
 </defs>
 <g transform="translate(-192.24 -214.84)">
  <g transform="matrix(.26458 0 0 .26458 49.725 177)">
   <path d="m739.99 244.32c0 55.601-45.073 100.67-100.67 100.67-55.602 0-100.68-45.073-100.68-100.67s45.074-100.68 100.68-100.68c55.601 0 100.67 45.074 100.67 100.68z" fill="url(#SVGID_00000007406767934128781520000013982460277388386180_)" opacity=".92"/>
   <mask x="549.664" y="142.867" width="173.04" height="152.799" maskUnits="userSpaceOnUse">
    <g filter="url(#Adobe_OpacityMaskFilter_00000086694210807121591090000010749034270948909465_)">
     <path d="m635.69 143.44c-47.777 0-86.52 34.206-86.52 76.396 0 42.2 38.743 76.405 86.52 76.405 47.786 0 86.518-34.206 86.518-76.405 1e-3 -42.19-38.731-76.396-86.518-76.396z" fill="url(#SVGID_00000034092153045845980770000016371466332975322001_)"/>
    </g>
   </mask>
   <path transform="translate(4.6643 1.301)" d="m636.18 142.87c-47.786 0-86.518 34.205-86.518 76.396 0 42.2 38.732 76.403 86.518 76.403 47.782 0 86.522-34.204 86.522-76.403-1e-3 -42.191-38.74-76.396-86.522-76.396z" fill="#fff" filter="url(#filter8)" mask="url(#SVGID_00000132051301273150057970000017289259491327012524_)" opacity=".40979" style="mix-blend-mode:normal"/>
   <mask x="653.405" y="143.013" width="85.001" height="99.208" maskUnits="userSpaceOnUse">
    <g filter="url(#Adobe_OpacityMaskFilter_00000138535798277969364350000013604572114604321445_)">
     <path d="m722.55 238.3c-18.277 10.663-45.024-1.15-59.747-26.372-14.719-25.218-11.823-54.322 6.46-64.982 18.286-10.665 45.043 1.13 59.747 26.35 14.723 25.231 11.838 54.323-6.46 65.004z" fill="url(#SVGID_00000070830344807660120090000014026671804437716109_)"/>
    </g>
   </mask>
   <path id="sun_10_" d="m722.55 238.3c-18.277 10.663-45.024-1.15-59.747-26.372-14.719-25.218-11.823-54.322 6.46-64.982 18.286-10.665 45.043 1.13 59.747 26.35 14.723 25.231 11.838 54.323-6.46 65.004z" fill="#f7eeda" mask="url(#sun_00000081636045273514003680000015901804861499704722_)"/>
   <path d="m700.95 196.81c-1.27 1.73-5.109 1.067-8.577-1.48-3.463-2.542-5.244-6.009-3.977-7.736 1.269-1.728 5.11-1.066 8.573 1.477 3.469 2.546 5.251 6.011 3.981 7.739z" fill="#f7eeda"/>
   <mask x="715.307" y="186.101" width="20.48" height="92.063" maskUnits="userSpaceOnUse">
    <g filter="url(#Adobe_OpacityMaskFilter_00000029026662833654843190000017430906560299323823_)">
     <path d="m724.87 278.15c-0.852 0.431 4.876-7.819 7.884-19.305 3.373-11.492 4.023-26.219 1.494-38.671-4.543-26.757-22.227-39.073-18.404-32.193 2.699 6.219 11.734 24.679 10.585 44.038 0.362 18.935-9.461 38.771-9.507 37.984 0.28 0.164 10.148-17.885 11.934-29.189 1.945-11.085 6.07-16.938 3.866 11.949-1.301 8.338-3.854 16.911-7.852 25.387z" fill="url(#SVGID_00000013167922144123442510000005329545215070305177_)"/>
    </g>
   </mask>
   <path d="m724.87 278.15c-0.852 0.431 4.876-7.819 7.884-19.305 3.373-11.492 4.023-26.219 1.494-38.671-4.543-26.757-22.227-39.073-18.404-32.193 2.699 6.219 11.734 24.679 10.585 44.038 0.362 18.935-9.461 38.771-9.507 37.984 0.28 0.164 10.148-17.885 11.934-29.189 1.945-11.085 6.07-16.938 3.866 11.949-1.301 8.338-3.854 16.911-7.852 25.387z" fill="#fff" mask="url(#SVGID_00000055691801986759401950000018329904329466777223_)"/>
   <mask x="558.917" y="266.126" width="154.869" height="114.519" maskUnits="userSpaceOnUse">
    <g filter="url(#Adobe_OpacityMaskFilter_00000012432357099339719540000013713506162552899982_)">
     <path d="m639.14 380.52c-42.722 2.104-78.608-21.781-80.176-53.334-1.557-31.542 31.838-58.83 74.567-60.927 42.745-2.098 78.654 21.77 80.197 53.314 1.556 31.555-31.814 58.834-74.588 60.947z" fill="url(#SVGID_00000113327604637819566130000015974638409348045703_)"/>
    </g>
   </mask>
   <path id="sun_9_" transform="translate(2.9562 -82.558)" d="m639.14 380.52c-42.722 2.104-78.608-21.781-80.176-53.334-1.557-31.542 31.838-58.83 74.567-60.927 42.745-2.098 78.654 21.77 80.197 53.314 1.556 31.555-31.814 58.834-74.588 60.947z" fill="#fff" mask="url(#sun_00000168084112991027547210000003110774896332438151_)" opacity=".45619"/>
   <mask x="558.996" y="154.851" width="48.806" height="68.32" maskUnits="userSpaceOnUse">
    <g filter="url(#Adobe_OpacityMaskFilter_00000105386861161248568920000011317797686009459618_)">
     <path d="m568.41 189.74c-5.768 9.677-8.592 21.033-8.071 32.132-0.227 0.427-0.446 0.864-0.663 1.303-1.773-10.954-0.228-24.228 6.491-36.67 0.728 1.101 1.475 2.18 2.243 3.235z" fill="url(#SVGID_00000102514191210279552720000008894659701491635380_)"/>
     <path d="m596.99 165.37c-10.233 3.97-19.446 11.133-25.952 20.322-0.612-1.442-1.185-2.923-1.709-4.43 8.025-12.008 21.334-22.407 38.473-26.414-4.249 3.202-7.846 6.767-10.812 10.522z" fill="url(#SVGID_00000034789632251231533660000011591773824297722046_)"/>
     <path d="m571.13 193.27c-4.973 6.745-9.063 15.97-10.001 27.146-0.235 0.417-0.466 0.84-0.692 1.268-0.338-11.112 2.654-22.202 8.309-31.495 0.772 1.05 1.569 2.075 2.384 3.081z" fill="url(#SVGID_00000099645183568808059670000002053088309293268123_)"/>
     <path d="m589.22 178.76c-4.896 1.933-10.688 5.646-15.909 11.759-0.711-1.366-1.38-2.77-2.009-4.203 6.318-8.795 15.033-15.512 24.451-19.317-2.788 3.807-4.953 7.776-6.533 11.761z" fill="url(#SVGID_00000103228001466669118760000005659583279097825440_)"/>
    </g>
   </mask>
   <g fill="#fff" mask="url(#SVGID_00000072982016259206085180000012331659263711226030_)">
    <path d="m568.41 189.74c-5.768 9.677-8.592 21.033-8.071 32.132-0.227 0.427-0.446 0.864-0.663 1.303-1.773-10.954-0.228-24.228 6.491-36.67 0.728 1.101 1.475 2.18 2.243 3.235z"/>
    <path d="m596.99 165.37c-10.233 3.97-19.446 11.133-25.952 20.322-0.612-1.442-1.185-2.923-1.709-4.43 8.025-12.008 21.334-22.407 38.473-26.414-4.249 3.202-7.846 6.767-10.812 10.522z"/>
    <path d="m571.13 193.27c-4.973 6.745-9.063 15.97-10.001 27.146-0.235 0.417-0.466 0.84-0.692 1.268-0.338-11.112 2.654-22.202 8.309-31.495 0.772 1.05 1.569 2.075 2.384 3.081z"/>
    <path d="m589.22 178.76c-4.896 1.933-10.688 5.646-15.909 11.759-0.711-1.366-1.38-2.77-2.009-4.203 6.318-8.795 15.033-15.512 24.451-19.317-2.788 3.807-4.953 7.776-6.533 11.761z"/>
   </g>
   <mask x="612.935" y="310.14" width="44.906" height="33.206" maskUnits="userSpaceOnUse">
    <g filter="url(#Adobe_OpacityMaskFilter_00000170974379156511534300000005466446470174696587_)">
     <path d="m636.2 343.31c-12.387 0.61-22.793-6.316-23.248-15.466-0.451-9.145 9.232-17.058 21.623-17.666 12.394-0.608 22.807 6.313 23.253 15.459 0.452 9.151-9.225 17.061-21.628 17.673z" fill="url(#SVGID_00000019649531455126578450000015920983298414831275_)"/>
    </g>
   </mask>
   <path id="sun_8_" d="m636.2 343.31c-12.387 0.61-22.793-6.316-23.248-15.466-0.451-9.145 9.232-17.058 21.623-17.666 12.394-0.608 22.807 6.313 23.253 15.459 0.452 9.151-9.225 17.061-21.628 17.673z" fill="#fff" mask="url(#sun_00000013169900568686855440000009176627494716549821_)"/>
   <mask x="583.432" y="290.919" width="105.503" height="78.014" maskUnits="userSpaceOnUse">
    <g filter="url(#Adobe_OpacityMaskFilter_00000120533570709649777670000008475198480833810075_)">
     <path d="m638.09 368.84c-29.104 1.435-53.551-14.837-54.619-36.333-1.06-21.486 21.689-40.077 50.8-41.505 29.118-1.429 53.581 14.832 54.632 36.319 1.06 21.497-21.675 40.081-50.813 41.519z" fill="url(#SVGID_00000117657144010251467870000005540750595653974708_)"/>
    </g>
   </mask>
   <path id="sun_7_" transform="translate(.84746 -13.559)" d="m638.09 368.84c-29.104 1.435-53.551-14.837-54.619-36.333-1.06-21.486 21.689-40.077 50.8-41.505 29.118-1.429 53.581 14.832 54.632 36.319-18.905 64.992-63.302 130.77-50.813 41.519z" fill="#fff" mask="url(#sun_00000096755119698890721740000015475412462367857590_)" opacity=".28"/>
  </g>
 </g>
</svg>
