
<svg
   width="26.219406mm"
   height="25.751329mm"
   viewBox="0 0 26.219406 25.751329"
   id="svg1">
  <g
     id="layer1"
     transform="translate(-91.810405,-135.73125)">
    <path
       style="opacity:0.5;fill:#72a4a6;stroke-width:0.264583"
       d="m 113.50942,138.47009 c 1.38642,2.37702 2.30055,5.07127 2.14656,7.80627 -0.24341,4.327 -3.57822,8.15234 -8.00973,8.29813 -1.49728,0.0492 -3.09165,-0.0328 -4.38123,0.72945 -0.7366,0.43551 -1.3081,1.11522 -2.05661,1.52982 -1.00118,0.55484 -2.19022,0.5461 -3.285331,0.17357 -0.705644,-0.24024 -1.372394,-0.63182 -1.924579,-1.1213 -1.103312,-0.97817 -2.332831,-2.54582 -2.40374,-4.08676 -0.04233,-0.92445 0.640821,-1.09299 1.10199,-0.38655 0.324908,0.49768 0.468313,1.08982 0.768615,1.59782 0.579702,0.98081 1.420547,1.90817 2.661443,1.84017 2.212442,-0.12118 2.762252,-2.77045 3.099332,-4.48177 0.62732,-3.18691 2.55111,-5.52821 5.06703,-7.49353 1.68381,-1.31551 3.96478,-3.2385 5.95657,-1.81399 0.26246,0.18759 1.27291,1.7616 1.06547,-0.0201 -0.17409,-1.49516 -1.13479,-2.83871 -2.40426,-3.64728 -0.58368,-0.37174 -5.25807,-2.1926 -4.56407,-0.26564 0.50483,1.40176 1.41235,2.24314 0.64162,3.78434 -0.0468,0.0937 -0.10213,0.1815 -0.15373,0.27199 0.30957,-0.82868 0.23839,-1.61952 -0.0942,-2.30346 -1.00092,-2.0582 -4.06664,-2.79586 -6.11055,-2.11667 -5.363367,1.78223 -9.679515,7.94544 -8.67304,13.66229 1.102783,6.26269 6.57172,11.03551 12.9749,11.03551 7.23371,0 13.09793,-5.86423 13.09793,-13.09794 8e-4,-3.95234 -1.75233,-7.493 -4.5204,-9.89436 z"
       id="path3650" />
    <path
       style="fill:#ffffff;stroke-width:0.264583"
       d="m 96.60175,138.12428 c -1.946804,1.58089 -3.636698,4.39844 -4.190206,6.72333 -0.679715,2.85538 -0.407723,5.8465 -0.407723,5.8465 0,0 -0.271992,-5.30331 3.399896,-9.38318 1.30466,-1.44939 2.922058,-2.61647 4.738953,-3.33402 0.74427,-0.29395 4.89849,-0.72813 2.97524,-1.96241 -1.54543,-0.99193 -4.786843,0.86809 -6.09362,1.78911 -0.142082,0.10028 -0.28284,0.20717 -0.42254,0.32067 z"
       id="path3651" />
    <path
       style="opacity:0.5;fill:#72a4a6;stroke-width:0.264583"
       d="m 113.81554,142.2883 c -0.75671,-0.0892 -0.3294,1.60231 0.38127,1.07764 0.19446,-0.14366 0.18838,-0.44291 0.0915,-0.66436 -0.0878,-0.20082 -0.25506,-0.38762 -0.47281,-0.41328 z"
       id="path3652" />
    <g
       style="opacity:0.7"
       id="g3654"
       transform="matrix(0.26458333,0,0,0.26458333,7.4384907,122.91524)">
		<path
   style="fill:#b4e1fa"
   d="m 413.351,93.548 c -0.791,8.352 -3.473,16.528 -7.858,23.683 -3.639,5.938 -12.61,12.76 -19.835,13.493 -2.455,0.249 -19.005,0.115 -24.674,3.539 -0.956,0.579 -2.222,1.469 -2.222,2.713 0,1.215 1.134,2.113 1.79,2.965 0.531,0.689 0.5,1.752 -0.069,2.41 -1.777,2.055 -10.607,-2.199 -12.614,-3.223 -15.534,-7.926 -19.973,-14.583 -24.728,-23.143 0,0 4.121,12.998 22.509,24.094 18.387,11.096 40.262,2.536 40.262,2.536 -0.846,0.331 -6.661,1.313 -7.114,0.415 -0.053,-0.105 -0.017,-0.232 0.031,-0.339 0.555,-1.241 2.822,-1.209 3.99,-1.586 1.528,-0.494 3.023,-1.091 4.47,-1.788 2.826,-1.361 5.462,-3.1 7.85,-5.132 4.846,-4.122 8.624,-9.385 11.441,-15.063 3.942,-7.941 6.118,-16.752 6.771,-25.574 z"
   id="path3653" />

		<path
   style="fill:#b4e1fa"
   d="m 413.451,84.293 c 0.169,3.015 0.132,6.121 -0.1,9.255 0.291,-3.076 0.334,-6.174 0.1,-9.255 z"
   id="path3654" />

	</g>
    <path
       style="opacity:0.7;fill:#ffffff;stroke-width:0.264583"
       d="m 101.86855,158.666 c -0.008,0.0437 -0.0336,0.0849 -0.0661,0.11589 -0.2704,0.25532 -0.87656,0.11906 -1.12554,-0.10424 -0.0339,-0.0302 -0.0659,-0.068 -0.0688,-0.11325 -0.002,-0.0362 0.0151,-0.0709 0.0373,-0.0995 0.254,-0.32861 0.78025,-0.1778 1.07685,-0.013 0.0622,0.0347 0.127,0.0794 0.14473,0.14816 0.006,0.0217 0.006,0.0439 0.002,0.0659 z"
       id="path3655" />
  </g>
</svg>
