<svg
   width="26.219414mm"
   height="25.751328mm"
   viewBox="0 0 26.219414 25.751328"
   version="1.1"
   id="svg1"
   inkscape:version="1.3.2 (091e20e, 2023-11-25)"
   sodipodi:docname="dkblueBubble.svg"
   xmlns:inkscape="http://www.inkscape.org/namespaces/inkscape"
   xmlns:sodipodi="http://sodipodi.sourceforge.net/DTD/sodipodi-0.dtd"
   xmlns="http://www.w3.org/2000/svg"
   xmlns:svg="http://www.w3.org/2000/svg">
  <sodipodi:namedview
     id="namedview1"
     pagecolor="#505050"
     bordercolor="#eeeeee"
     borderopacity="1"
     inkscape:showpageshadow="0"
     inkscape:pageopacity="0"
     inkscape:pagecheckerboard="0"
     inkscape:deskcolor="#505050"
     inkscape:document-units="mm"
     inkscape:zoom="0.56444444"
     inkscape:cx="-550.98425"
     inkscape:cy="-483.66142"
     inkscape:window-width="1392"
     inkscape:window-height="1027"
     inkscape:window-x="0"
     inkscape:window-y="799"
     inkscape:window-maximized="0"
     inkscape:current-layer="layer1" />
  <defs
     id="defs1" />
  <g
     inkscape:label="Layer 1"
     inkscape:groupmode="layer"
     id="layer1"
     transform="translate(-250.82499,-276.75417)">
    <path
       style="opacity:0.5;fill:#008cbc;stroke-width:0.264583"
       d="m 272.52374,279.49302 c 1.38641,2.37701 2.30055,5.07127 2.14656,7.806 -0.24342,4.32726 -3.57822,8.15234 -8.00973,8.29839 -1.49728,0.0492 -3.09166,-0.0328 -4.38124,0.72946 -0.7366,0.4355 -1.3081,1.11522 -2.0566,1.52982 -1.00145,0.55483 -2.19022,0.5461 -3.28533,0.17356 -0.70565,-0.24024 -1.3724,-0.63182 -1.92458,-1.1213 -1.10331,-0.97816 -2.33257,-2.54582 -2.40374,-4.08675 -0.0423,-0.92446 0.64082,-1.093 1.10199,-0.38656 0.32491,0.49768 0.46831,1.08982 0.76861,1.59782 0.5797,0.98081 1.42055,1.90817 2.66145,1.84018 2.21244,-0.12118 2.76225,-2.77046 3.09933,-4.48178 0.62732,-3.18691 2.55084,-5.52821 5.06703,-7.49353 1.68381,-1.31551 3.96478,-3.2385 5.95657,-1.81398 0.26246,0.18759 1.27291,1.76159 1.06547,-0.0201 -0.17409,-1.49516 -1.1348,-2.83872 -2.40427,-3.64728 -0.58367,-0.37174 -5.25806,-2.19261 -4.56379,-0.26564 0.50482,1.40176 1.41234,2.24313 0.64161,3.78433 -0.0468,0.0937 -0.10213,0.1815 -0.15372,0.27199 0.30956,-0.82867 0.23839,-1.61951 -0.0942,-2.30346 -1.00092,-2.05819 -4.06665,-2.79585 -6.11056,-2.11667 -5.36337,1.78224 -9.67951,7.94544 -8.67304,13.66229 1.10279,6.26243 6.57172,11.03551 12.9749,11.03551 7.23371,0 13.09794,-5.86423 13.09794,-13.09793 2.6e-4,-3.95235 -1.7526,-7.493 -4.52067,-9.89436 z"
       id="path3668" />
    <path
       style="fill:#ffffff;stroke-width:0.264583"
       d="m 255.61607,279.14721 c -1.94681,1.58088 -3.6367,4.39817 -4.19021,6.72332 -0.67971,2.85539 -0.40772,5.8465 -0.40772,5.8465 0,0 -0.27199,-5.30331 3.39989,-9.38318 1.30466,-1.44939 2.92206,-2.61647 4.73896,-3.33402 0.74427,-0.29395 4.89849,-0.72813 2.97524,-1.96241 -1.54544,-0.99192 -4.78685,0.8681 -6.09362,1.78911 -0.14208,0.10028 -0.28311,0.20744 -0.42254,0.32068 z"
       id="path3669" />
    <path
       style="opacity:0.5;fill:#008cbc;stroke-width:0.264583"
       d="m 272.82986,283.31122 c -0.75671,-0.0892 -0.32914,1.60258 0.38126,1.07765 0.19447,-0.14367 0.18839,-0.44292 0.0915,-0.66437 -0.0878,-0.20082 -0.25506,-0.38762 -0.47281,-0.41328 z"
       id="path3670" />
    <g
       style="opacity:0.7"
       id="g3672"
       transform="matrix(0.26458333,0,0,0.26458333,242.37817,230.13632)">
		<path
   style="fill:#b7e2fa"
   d="m 126.388,221.303 c -0.791,8.352 -3.473,16.528 -7.858,23.683 -3.639,5.938 -12.61,12.76 -19.835,13.493 -2.455,0.249 -19.006,0.115 -24.674,3.54 -0.956,0.579 -2.222,1.469 -2.222,2.713 0,1.215 1.134,2.113 1.79,2.965 0.531,0.69 0.5,1.752 -0.069,2.41 -1.777,2.055 -10.607,-2.199 -12.615,-3.224 C 45.371,258.958 40.933,252.3 36.177,243.74 c 0,0 4.121,12.998 22.508,24.094 18.387,11.096 40.262,2.536 40.262,2.536 -0.847,0.331 -6.661,1.313 -7.114,0.415 -0.053,-0.105 -0.017,-0.232 0.031,-0.339 0.555,-1.241 2.822,-1.209 3.99,-1.586 1.528,-0.494 3.023,-1.091 4.47,-1.788 2.826,-1.361 5.462,-3.1 7.85,-5.132 4.845,-4.122 8.624,-9.385 11.441,-15.063 3.944,-7.941 6.121,-16.752 6.773,-25.574 z"
   id="path3671" />

		<path
   style="fill:#b7e2fa"
   d="m 126.489,212.048 c 0.169,3.016 0.132,6.122 -0.1,9.255 0.291,-3.075 0.333,-6.174 0.1,-9.255 z"
   id="path3672" />

	</g>
    <path
       style="opacity:0.7;fill:#ffffff;stroke-width:0.264583"
       d="m 260.88286,299.68893 c -0.008,0.0436 -0.0336,0.0849 -0.0661,0.11588 -0.27041,0.25533 -0.87657,0.11907 -1.12554,-0.10424 -0.0336,-0.0304 -0.0659,-0.068 -0.0685,-0.11324 -0.002,-0.0362 0.0151,-0.0709 0.0373,-0.0995 0.254,-0.32861 0.78026,-0.1778 1.07685,-0.013 0.0622,0.0347 0.127,0.0794 0.14473,0.14843 0.005,0.0214 0.005,0.0439 0.001,0.0656 z"
       id="path3673" />
  </g>
</svg>
