<svg
   width="26.219416mm"
   height="25.751329mm"
   viewBox="0 0 26.219416 25.751329"
   version="1.1"
   id="svg1"
   inkscape:version="1.3.2 (091e20e, 2023-11-25)"
   sodipodi:docname="redBubble.svg"
   xmlns:inkscape="http://www.inkscape.org/namespaces/inkscape"
   xmlns:sodipodi="http://sodipodi.sourceforge.net/DTD/sodipodi-0.dtd"
   xmlns="http://www.w3.org/2000/svg"
   xmlns:svg="http://www.w3.org/2000/svg">
  <sodipodi:namedview
     id="namedview1"
     pagecolor="#505050"
     bordercolor="#eeeeee"
     borderopacity="1"
     inkscape:showpageshadow="0"
     inkscape:pageopacity="0"
     inkscape:pagecheckerboard="0"
     inkscape:deskcolor="#505050"
     inkscape:document-units="mm"
     inkscape:zoom="0.56444444"
     inkscape:cx="49.606299"
     inkscape:cy="47.834646"
     inkscape:window-width="1392"
     inkscape:window-height="1027"
     inkscape:window-x="0"
     inkscape:window-y="799"
     inkscape:window-maximized="0"
     inkscape:current-layer="layer1" />
  <defs
     id="defs1" />
  <g
     inkscape:label="Layer 1"
     inkscape:groupmode="layer"
     id="layer1"
     transform="translate(-91.810415,-135.73125)">
    <path
       style="opacity:0.5;fill:#ec6138;stroke-width:0.264583"
       d="m 113.50942,138.47009 c 1.38642,2.37702 2.30055,5.07127 2.14656,7.80627 -0.24341,4.327 -3.57822,8.15234 -8.00973,8.29813 -1.49727,0.0492 -3.09165,-0.0328 -4.38123,0.72945 -0.7366,0.43551 -1.3081,1.11522 -2.05661,1.52982 -1.00145,0.55484 -2.19022,0.5461 -3.28533,0.17357 -0.705644,-0.24024 -1.372394,-0.63182 -1.924579,-1.1213 -1.103313,-0.97817 -2.332832,-2.54582 -2.40374,-4.08676 -0.04233,-0.92445 0.640821,-1.09299 1.10199,-0.38655 0.324908,0.49768 0.468312,1.08982 0.768614,1.59782 0.579702,0.98081 1.420548,1.90817 2.661444,1.84017 2.212441,-0.12118 2.762251,-2.77045 3.099331,-4.48177 0.62733,-3.18691 2.55111,-5.52821 5.06703,-7.49353 1.68381,-1.31551 3.96478,-3.2385 5.95657,-1.81399 0.26246,0.18759 1.27291,1.7616 1.06547,-0.0201 -0.17409,-1.49516 -1.13479,-2.83871 -2.40426,-3.64728 -0.58367,-0.37174 -5.25807,-2.1926 -4.56407,-0.26564 0.50483,1.40176 1.41235,2.24314 0.64162,3.78434 -0.0468,0.0937 -0.10213,0.1815 -0.15372,0.27199 0.30956,-0.82868 0.23838,-1.61952 -0.0942,-2.30346 -1.00092,-2.0582 -4.06664,-2.79586 -6.11055,-2.11667 -5.363367,1.78223 -9.679515,7.94544 -8.67304,13.66229 1.102783,6.26269 6.571721,11.03551 12.9749,11.03551 7.23371,0 13.09794,-5.86423 13.09794,-13.09794 5.2e-4,-3.95234 -1.75234,-7.493 -4.52041,-9.89436 z"
       id="path3656" />
    <path
       style="fill:#ffffff;stroke-width:0.264583"
       d="m 96.601751,138.12428 c -1.946805,1.58089 -3.636698,4.39844 -4.190207,6.72333 -0.679714,2.85538 -0.407723,5.8465 -0.407723,5.8465 0,0 -0.271991,-5.30331 3.399896,-9.38318 1.304661,-1.44939 2.922058,-2.61647 4.738953,-3.33402 0.74427,-0.29395 4.89849,-0.72813 2.97524,-1.96241 -1.54543,-0.99193 -4.786843,0.86809 -6.09362,1.78911 -0.142081,0.10028 -0.282839,0.20717 -0.422539,0.32067 z"
       id="path3657" />
    <path
       style="opacity:0.5;fill:#ec6138;stroke-width:0.264583"
       d="m 113.81554,142.2883 c -0.75671,-0.0892 -0.32914,1.60231 0.38127,1.07764 0.19447,-0.14366 0.18838,-0.44291 0.0915,-0.66436 -0.0878,-0.20082 -0.25506,-0.38762 -0.47281,-0.41328 z"
       id="path3658" />
    <g
       style="opacity:0.7"
       id="g3660"
       transform="matrix(0.26458333,0,0,0.26458333,45.401172,122.91524)">
		<path
   style="fill:#fac59a"
   d="m 269.87,93.548 c -0.791,8.352 -3.473,16.528 -7.858,23.683 -3.639,5.938 -12.61,12.76 -19.835,13.493 -2.455,0.249 -19.006,0.115 -24.674,3.539 -0.956,0.579 -2.222,1.469 -2.222,2.713 0,1.215 1.134,2.113 1.79,2.965 0.531,0.689 0.5,1.752 -0.069,2.41 -1.777,2.055 -10.607,-2.199 -12.614,-3.223 -15.534,-7.926 -19.973,-14.583 -24.728,-23.143 0,0 4.121,12.998 22.508,24.094 18.387,11.096 40.262,2.536 40.262,2.536 -0.846,0.331 -6.661,1.313 -7.114,0.415 -0.053,-0.105 -0.017,-0.232 0.031,-0.339 0.555,-1.241 2.822,-1.209 3.99,-1.586 1.528,-0.494 3.023,-1.091 4.47,-1.788 2.826,-1.361 5.462,-3.1 7.85,-5.132 4.846,-4.122 8.624,-9.385 11.442,-15.063 3.941,-7.941 6.118,-16.752 6.771,-25.574 z"
   id="path3659" />

		<path
   style="fill:#fac59a"
   d="m 269.97,84.293 c 0.169,3.015 0.132,6.121 -0.1,9.255 0.291,-3.076 0.333,-6.174 0.1,-9.255 z"
   id="path3660" />

	</g>
    <path
       style="opacity:0.7;fill:#ffffff;stroke-width:0.264583"
       d="m 101.86855,158.666 c -0.008,0.0437 -0.0336,0.0849 -0.0661,0.11589 -0.2704,0.25532 -0.87656,0.11906 -1.12554,-0.10424 -0.0336,-0.0302 -0.0659,-0.068 -0.0688,-0.11325 -0.002,-0.0362 0.0151,-0.0709 0.0373,-0.0995 0.254,-0.32861 0.78025,-0.1778 1.07685,-0.013 0.0622,0.0347 0.127,0.0794 0.14473,0.14816 0.006,0.0217 0.006,0.0439 0.002,0.0659 z"
       id="path3661" />
  </g>
</svg>
