<?xml version="1.0" encoding="UTF-8"?>
<!-- Generator: Adobe Illustrator 27.5.0, SVG Export Plug-In . SVG Version: 6.00 Build 0)  -->
<svg width="1080" height="200" version="1.1" viewBox="0 0 1080 200" xml:space="preserve" xmlns="http://www.w3.org/2000/svg">
<g transform="translate(4e-5 -151.62)">
	<g transform="matrix(1.35,0,0,1,1.4e-5,0)">
		
		<g transform="matrix(-1 0 0 -.56023 800 390.83)">
			<path d="m0 139 33.3-4.3c33.4-4.399 100-13 166.7-8.399 66.7 4.699 133.3 22.699 200 33.899 82.014 13.649 164.29 14.358 243.42-13.794 54.921-19.541 105.66-48.424 156.58-76.406v354h-503.14-251.57c-4.071-1e-3 -45.283 0.219-45.283-0.265v-6.835-34.638-243.26z" fill="#0b0b0b" style="mix-blend-mode:normal"/>
			<path d="m0 212.05 33.3 13.578c33.4 13.576 100 40.73 166.7 35.224 48.175-4.03 93.296-23.699 139.12-37.549 50.027-15.12 97.694-16.911 149.25-9.293 51.519 7.612 101.82 17.717 154.16 12.57 42.405-4.169 83.549-15.105 124.16-27.579l33.3-10.333v235.33h-800z" fill="#260a46" style="mix-blend-mode:normal"/>
			<path d="m0 262 33.3 19.5c33.4 19.5 100 58.5 166.7 77.301 66.7 18.899 133.3 17.5 200-3.101 66.7-20.7 133.3-60.7 200-60.899 66.7-0.101 133.3 39.5 166.7 59.399l33.3 19.8v47h-800z" fill="#5595eb" style="mix-blend-mode:normal"/>
			<path d="m0 381c66.576 6.6 133.14 13.293 200 16.301 199.94 8.994 400.85-5.551 600-22.301v52h-800z" fill="#6712aa" style="mix-blend-mode:normal"/>
		</g>
	</g>
</g>

</svg>
